<?xml version="1.0" encoding="utf-8"?>
<!-- Generator: Adobe Illustrator 24.0.2, SVG Export Plug-In . SVG Version: 6.00 Build 0)  -->
<svg version="1.1" id="Layer_3" xmlns="http://www.w3.org/2000/svg" xmlns:xlink="http://www.w3.org/1999/xlink" x="0px" y="0px"
	 viewBox="0 0 612 612" style="enable-background:new 0 0 612 612;" xml:space="preserve">
<style type="text/css">
	.st0{fill:#FFFFFF;}
</style>
<path d="M357.1,439.1H155.5c-16.5,0-30-13.5-30-30v-53.2c0-16.5,13.5-30,30-30h201.7c28.1,0,51,23,51,51V388
	C408.2,416.1,385.2,439.1,357.1,439.1z"/>
<path id="gun-body-cylinder" d="M403.9,408.5H58.2c-13.1,0-23.9-10.7-23.9-23.9v-4.1c0-13.1,10.7-23.9,23.9-23.9h345.7
	c13.1,0,23.9,10.7,23.9,23.9v4.1C427.8,397.7,417.1,408.5,403.9,408.5z"/>
<path d="M54.1,439.1H50c-13.3,0-24.1-10.8-24.1-24.1v-65c0-13.3,10.8-24.1,24.1-24.1h4.2c13.3,0,24.1,10.8,24.1,24.1v65
	C78.2,428.3,67.4,439.1,54.1,439.1z"/>
<path id="gun-grip" d="M299.7,415.7L198.9,590.2c-8.3,14.3-26.7,19.2-41,11l-46.1-26.6c-14.3-8.3-19.2-26.7-11-41L201.7,359
	c14-24.3,45.4-32.7,69.7-18.7l9.6,5.6C305.3,359.9,313.7,391.3,299.7,415.7z"/>
<path id="gun-trigger" d="M238.6,557.2h25.1c17.9,0,32.6-14.7,32.6-32.6v-67.4L238.6,557.2z"/>
<path id="top-receipient-tube" d="M307.9,342.8c0-0.1,0-0.1-0.1-0.2l-61-127.3l-61.6,35.6l44.1,91.9H307.9z"/>
<path id="top-receipient-container" d="M294.4,167.6L215.3,30.6L37.9,133l79.1,137.1c15.2,26.4,49.3,35.5,75.7,20.3l81.3-47
	C300.5,228.1,309.7,194,294.4,167.6z"/>
<path id="top-receipient-cover" d="M225.9,43.1L44,148.2c-7.9,4.6-18.1,1.8-22.7-6.1l-1.4-2.5c-4.6-7.9-1.8-18.1,6.1-22.7l181.9-105
	c7.9-4.6,18.1-1.8,22.7,6.1l1.4,2.5C236.6,28.4,233.8,38.6,225.9,43.1z"/>
<path id="top-receipient-liquid-level" class="st0" d="M234.5,131.2C234.5,131.2,234.5,131.2,234.5,131.2l-40.3-69.7l-121.3,70
	l3.6,6.3h0l5.1,8.5c0.6,1,1.4,1.3,3,1.3h4.1c9.9,0,18.6-3.1,24.5-8.1c5.9,5,14.6,8.1,24.5,8.1c9.9,0,18.6-3.1,24.5-8.1
	c5.9,5,14.6,8.1,24.5,8.1c9.9,0,18.6-3.1,24.5-8.1c5.9,5,14.6,8.1,24.5,8.1h4.1c1.3,0,2.5-0.6,3.2-1.6L234.5,131.2z"/>
<path id="ray-bottom" d="M479.7,443.7l90.3,39c6.1,2.6,13.2-0.2,15.8-6.3v0c2.6-6.1-0.2-13.2-6.3-15.8l-90.3-39
	c-6.1-2.6-13.2,0.2-15.8,6.3v0C470.8,434,473.6,441.1,479.7,443.7z"/>
<path id="ray-middle" d="M578.8,394.5h-98.4c-6.6,0-12-5.4-12-12v0c0-6.6,5.4-12,12-12h98.4c6.6,0,12,5.4,12,12v0
	C590.8,389.1,585.4,394.5,578.8,394.5z"/>
<path id="ray-top" d="M579.5,304.4l-90.3,39c-6.1,2.6-13.2-0.2-15.8-6.3v0c-2.6-6.1,0.2-13.2,6.3-15.8l90.3-39
	c6.1-2.6,13.2,0.2,15.8,6.3l0,0C588.4,294.7,585.6,301.8,579.5,304.4z"/>
</svg>
